<?xml version="1.0" standalone="no"?><!DOCTYPE svg PUBLIC "-//W3C//DTD SVG 1.1//EN" "http://www.w3.org/Graphics/SVG/1.1/DTD/svg11.dtd"><svg t="1627570385349" class="icon" viewBox="0 0 1024 1024" version="1.1" xmlns="http://www.w3.org/2000/svg" p-id="1199" xmlns:xlink="http://www.w3.org/1999/xlink" width="32" height="32"><defs><style type="text/css"></style></defs><path d="M512 0C276.366222 0 85.333333 186.823111 85.333333 417.28c0 274.432 277.390222 405.788444 312.149334 436.394667 35.498667 31.232 64.796444 101.205333 76.629333 140.913777 5.745778 19.228444 21.902222 29.013333 37.888 29.411556a40.049778 40.049778 0 0 0 37.831111-29.411556c11.832889-39.708444 41.130667-109.624889 76.629333-140.913777 34.816-30.606222 312.206222-161.962667 312.206223-436.394667C938.666667 186.823111 747.633778 0 512 0z m0 531.114667c-64.284444 0-116.337778-50.972444-116.337778-113.834667s52.053333-113.777778 116.337778-113.777778 116.337778 50.915556 116.337778 113.777778S576.284444 531.114667 512 531.114667z" p-id="1200" fill="#f5222d"></path></svg>
