<?xml version="1.0" standalone="no"?><!DOCTYPE svg PUBLIC "-//W3C//DTD SVG 1.1//EN" "http://www.w3.org/Graphics/SVG/1.1/DTD/svg11.dtd"><svg t="1627710557900" class="icon" viewBox="0 0 1024 1024" version="1.1" xmlns="http://www.w3.org/2000/svg" p-id="3871" xmlns:xlink="http://www.w3.org/1999/xlink" width="32" height="32"><defs><style type="text/css"></style></defs><path d="M896 384c0-211.2-172.8-384-384-384S128 172.8 128 384c0 76.8 25.6 147.2 64 211.2 6.4 12.8 19.2 25.6 25.6 32L512 1024l294.4-396.8c6.4-12.8 19.2-19.2 25.6-32 38.4-64 64-134.4 64-211.2zM512 576C403.2 576 320 492.8 320 384s83.2-192 192-192 192 83.2 192 192-83.2 192-192 192z" fill="#5B8FF9" p-id="3872"></path></svg>